<svg xmlns="http://www.w3.org/2000/svg" viewBox="0 0 64 64">
  <defs>
    <linearGradient id="bg" x1="0" x2="1" y1="0" y2="1">
      <stop offset="0%" stop-color="#4338ca"/>
      <stop offset="100%" stop-color="#7c3aed"/>
    </linearGradient>
    <linearGradient id="wallet" x1="0" x2="1" y1="0" y2="1">
      <stop offset="0%" stop-color="#f59e0b"/>
      <stop offset="100%" stop-color="#f97316"/>
    </linearGradient>
    <linearGradient id="walletFront" x1="0" x2="1" y1="0" y2="1">
      <stop offset="0%" stop-color="#fdba74"/>
      <stop offset="100%" stop-color="#fb923c"/>
    </linearGradient>
  </defs>
  <rect width="64" height="64" rx="16" fill="url(#bg)"/>
  <path d="M17 21.5c0-3 2.4-5.5 5.5-5.5h18.5c2 0 3.9.9 5.1 2.4l2.9 3.6H24c-3.9 0-7 3.1-7 7v-7.5Z" fill="#312e81" opacity=".35"/>
  <rect x="14" y="22" width="36" height="24" rx="7" fill="url(#wallet)"/>
  <path d="M20 26h31c2.8 0 5 2.2 5 5v6c0 2.8-2.2 5-5 5H20c-3.3 0-6-2.7-6-6v-4c0-3.3 2.7-6 6-6Z" fill="url(#walletFront)"/>
  <rect x="38" y="29" width="18" height="10" rx="5" fill="#7c2d12" opacity=".9"/>
  <circle cx="45" cy="34" r="2.3" fill="#fde68a"/>
  <path d="M22 30.5h10" stroke="#7c2d12" stroke-width="2.5" stroke-linecap="round" opacity=".55"/>
  <path d="M22 35h8" stroke="#7c2d12" stroke-width="2.5" stroke-linecap="round" opacity=".4"/>
</svg>